<svg width="100" height="40" viewBox="0 0 100 40" fill="none" xmlns="http://www.w3.org/2000/svg">
<rect width="100" height="40" rx="20" fill="#302B32"/>
<path d="M40.892 23.444H35.654L34.754 26H32.612L37.094 13.472H39.47L43.952 26H41.792L40.892 23.444ZM40.316 21.77L38.282 15.956L36.23 21.77H40.316ZM45.2168 20.996C45.2168 20 45.4208 19.118 45.8288 18.35C46.2488 17.582 46.8128 16.988 47.5208 16.568C48.2408 16.136 49.0388 15.92 49.9148 15.92C50.5628 15.92 51.1988 16.064 51.8228 16.352C52.4588 16.628 52.9628 17 53.3348 17.468V12.68H55.4048V26H53.3348V24.506C52.9988 24.986 52.5308 25.382 51.9308 25.694C51.3428 26.006 50.6648 26.162 49.8968 26.162C49.0328 26.162 48.2408 25.946 47.5208 25.514C46.8128 25.07 46.2488 24.458 45.8288 23.678C45.4208 22.886 45.2168 21.992 45.2168 20.996ZM53.3348 21.032C53.3348 20.348 53.1908 19.754 52.9028 19.25C52.6268 18.746 52.2608 18.362 51.8048 18.098C51.3488 17.834 50.8568 17.702 50.3288 17.702C49.8008 17.702 49.3088 17.834 48.8528 18.098C48.3968 18.35 48.0248 18.728 47.7368 19.232C47.4608 19.724 47.3228 20.312 47.3228 20.996C47.3228 21.68 47.4608 22.28 47.7368 22.796C48.0248 23.312 48.3968 23.708 48.8528 23.984C49.3208 24.248 49.8128 24.38 50.3288 24.38C50.8568 24.38 51.3488 24.248 51.8048 23.984C52.2608 23.72 52.6268 23.336 52.9028 22.832C53.1908 22.316 53.3348 21.716 53.3348 21.032ZM57.416 20.996C57.416 20 57.62 19.118 58.028 18.35C58.448 17.582 59.012 16.988 59.72 16.568C60.44 16.136 61.238 15.92 62.114 15.92C62.762 15.92 63.398 16.064 64.022 16.352C64.658 16.628 65.162 17 65.534 17.468V12.68H67.604V26H65.534V24.506C65.198 24.986 64.73 25.382 64.13 25.694C63.542 26.006 62.864 26.162 62.096 26.162C61.232 26.162 60.44 25.946 59.72 25.514C59.012 25.07 58.448 24.458 58.028 23.678C57.62 22.886 57.416 21.992 57.416 20.996ZM65.534 21.032C65.534 20.348 65.39 19.754 65.102 19.25C64.826 18.746 64.46 18.362 64.004 18.098C63.548 17.834 63.056 17.702 62.528 17.702C62 17.702 61.508 17.834 61.052 18.098C60.596 18.35 60.224 18.728 59.936 19.232C59.66 19.724 59.522 20.312 59.522 20.996C59.522 21.68 59.66 22.28 59.936 22.796C60.224 23.312 60.596 23.708 61.052 23.984C61.52 24.248 62.012 24.38 62.528 24.38C63.056 24.38 63.548 24.248 64.004 23.984C64.46 23.72 64.826 23.336 65.102 22.832C65.39 22.316 65.534 21.716 65.534 21.032Z" fill="#D8BFD8"/>
</svg>
