<svg width="40" height="40" viewBox="0 0 40 40" fill="none" xmlns="http://www.w3.org/2000/svg">
<rect width="40" height="40" rx="10" fill="black"/>
<path d="M19.9423 2.67045C19.9107 2.67699 19.8791 2.68679 19.8503 2.6966C19.5082 2.78487 19.2667 3.13468 19.2753 3.53352V8.55506C19.2725 8.85583 19.4105 9.13699 19.6405 9.29064C19.8705 9.44102 20.1522 9.44102 20.3822 9.29064C20.6122 9.13699 20.7502 8.85583 20.7473 8.55506V3.53352C20.756 3.2916 20.6697 3.05949 20.5173 2.89602C20.3621 2.72929 20.1522 2.64756 19.9423 2.67045ZM9.45434 7.58737C9.17834 7.64295 8.95697 7.87179 8.87934 8.17583C8.80172 8.48314 8.88222 8.81006 9.08634 9.02583L12.2143 12.5828C12.3926 12.8312 12.6772 12.9456 12.9532 12.8737C13.2263 12.8018 13.442 12.5566 13.5052 12.246C13.5685 11.9322 13.4678 11.6085 13.2493 11.4058L10.1213 7.84891C9.96897 7.66256 9.74759 7.56775 9.52334 7.58737C9.50034 7.58737 9.47734 7.58737 9.45434 7.58737ZM30.3383 7.58737C30.1716 7.61352 30.0163 7.70833 29.9013 7.84891L26.7733 11.4058C26.5548 11.6085 26.4542 11.9322 26.5175 12.246C26.5807 12.5566 26.7963 12.8018 27.0695 12.8737C27.3455 12.9456 27.6301 12.8312 27.8083 12.5828L30.9363 9.02583C31.1663 8.77737 31.2325 8.38833 31.0973 8.06141C30.9593 7.73122 30.6546 7.5416 30.3383 7.58737ZM20.0113 11.9028C15.9518 11.9028 12.6513 15.6558 12.6513 20.272C12.6513 24.8881 15.9518 28.6412 20.0113 28.6412C24.0708 28.6412 27.3713 24.8881 27.3713 20.272C27.3713 15.6558 24.0708 11.9028 20.0113 11.9028ZM5.08434 19.4351C4.67897 19.5004 4.39434 19.9287 4.45184 20.3897C4.50934 20.8506 4.88597 21.1743 5.29134 21.1089H9.70734C9.97184 21.1122 10.2191 20.9553 10.3542 20.6937C10.4865 20.4322 10.4865 20.1118 10.3542 19.8503C10.2191 19.5887 9.97184 19.4318 9.70734 19.4351H5.29134C5.26834 19.4351 5.24534 19.4351 5.22234 19.4351C5.19934 19.4351 5.17634 19.4351 5.15334 19.4351C5.13034 19.4351 5.10734 19.4351 5.08434 19.4351ZM30.1083 19.4351C29.703 19.5004 29.4183 19.9287 29.4758 20.3897C29.5333 20.8506 29.91 21.1743 30.3153 21.1089H34.7313C34.9958 21.1122 35.2431 20.9553 35.3782 20.6937C35.5105 20.4322 35.5105 20.1118 35.3782 19.8503C35.2431 19.5887 34.9958 19.4318 34.7313 19.4351H30.3153C30.2923 19.4351 30.2693 19.4351 30.2463 19.4351C30.2233 19.4351 30.2003 19.4351 30.1773 19.4351C30.1543 19.4351 30.1313 19.4351 30.1083 19.4351ZM12.6513 27.6997C12.4846 27.7258 12.3293 27.8206 12.2143 27.9612L9.08634 31.5181C8.86784 31.7208 8.76722 32.0445 8.83047 32.3583C8.89372 32.6689 9.10934 32.9141 9.38247 32.986C9.65847 33.0579 9.94309 32.9435 10.1213 32.6951L13.2493 29.1381C13.4678 28.8995 13.534 28.5301 13.4161 28.2129C13.3011 27.8958 13.0222 27.6931 12.7203 27.6997C12.6973 27.6997 12.6743 27.6997 12.6513 27.6997ZM27.1413 27.6997C26.8653 27.7553 26.644 27.9841 26.5663 28.2881C26.4887 28.5954 26.5692 28.9224 26.7733 29.1381L29.9013 32.6951C30.0796 32.9435 30.3642 33.0579 30.6402 32.986C30.9133 32.9141 31.129 32.6689 31.1922 32.3583C31.2555 32.0445 31.1548 31.7208 30.9363 31.5181L27.8083 27.9612C27.6703 27.7945 27.4806 27.7029 27.2793 27.6997C27.2563 27.6997 27.2333 27.6997 27.2103 27.6997C27.1873 27.6997 27.1643 27.6997 27.1413 27.6997ZM19.9423 31.1258C19.9107 31.1324 19.8791 31.1422 19.8503 31.152C19.5082 31.2403 19.2667 31.5901 19.2753 31.9889V37.0104C19.2725 37.3112 19.4105 37.5924 19.6405 37.746C19.8705 37.8964 20.1522 37.8964 20.3822 37.746C20.6122 37.5924 20.7502 37.3112 20.7473 37.0104V31.9889C20.756 31.747 20.6697 31.5149 20.5173 31.3514C20.3621 31.1847 20.1522 31.1029 19.9423 31.1258Z" fill="#FDFDFD"/>
</svg>
